<mxfile host="app.diagrams.net" modified="2023-11-07T22:39:16.900Z" agent="Mozilla/5.0 (Windows NT 10.0; Win64; x64) AppleWebKit/537.36 (KHTML, like Gecko) Chrome/119.0.0.0 Safari/537.36" etag="pVU0AIFJpmwEyeg34xuh" version="22.0.8" type="device">
  <diagram name="PÃ¡gina-1" id="ai2Cud8kInDm538lsbWT">
    <mxGraphModel dx="1114" dy="638" grid="1" gridSize="10" guides="1" tooltips="1" connect="1" arrows="1" fold="1" page="1" pageScale="1" pageWidth="827" pageHeight="1169" math="0" shadow="0">
      <root>
        <mxCell id="0" />
        <mxCell id="1" parent="0" />
        <mxCell id="ZGlA48Y2NmvRt6gWsgfc-32" style="edgeStyle=orthogonalEdgeStyle;rounded=0;orthogonalLoop=1;jettySize=auto;html=1;" edge="1" parent="1" source="ZGlA48Y2NmvRt6gWsgfc-2">
          <mxGeometry relative="1" as="geometry">
            <mxPoint x="410" y="350" as="targetPoint" />
          </mxGeometry>
        </mxCell>
        <mxCell id="ZGlA48Y2NmvRt6gWsgfc-2" value="funcionario" style="swimlane;fontStyle=0;childLayout=stackLayout;horizontal=1;startSize=30;horizontalStack=0;resizeParent=1;resizeParentMax=0;resizeLast=0;collapsible=1;marginBottom=0;whiteSpace=wrap;html=1;" vertex="1" parent="1">
          <mxGeometry x="200" y="30" width="140" height="210" as="geometry" />
        </mxCell>
        <mxCell id="ZGlA48Y2NmvRt6gWsgfc-3" value="id_funcionario: int" style="text;strokeColor=none;fillColor=none;align=left;verticalAlign=middle;spacingLeft=4;spacingRight=4;overflow=hidden;points=[[0,0.5],[1,0.5]];portConstraint=eastwest;rotatable=0;whiteSpace=wrap;html=1;" vertex="1" parent="ZGlA48Y2NmvRt6gWsgfc-2">
          <mxGeometry y="30" width="140" height="30" as="geometry" />
        </mxCell>
        <mxCell id="ZGlA48Y2NmvRt6gWsgfc-4" value="nome" style="text;strokeColor=none;fillColor=none;align=left;verticalAlign=middle;spacingLeft=4;spacingRight=4;overflow=hidden;points=[[0,0.5],[1,0.5]];portConstraint=eastwest;rotatable=0;whiteSpace=wrap;html=1;" vertex="1" parent="ZGlA48Y2NmvRt6gWsgfc-2">
          <mxGeometry y="60" width="140" height="40" as="geometry" />
        </mxCell>
        <mxCell id="ZGlA48Y2NmvRt6gWsgfc-5" value="idade&lt;br&gt;data_nasc&lt;br&gt;celular&lt;br&gt;senha&lt;br&gt;endereco&lt;br&gt;fk_cargo" style="text;strokeColor=none;fillColor=none;align=left;verticalAlign=middle;spacingLeft=4;spacingRight=4;overflow=hidden;points=[[0,0.5],[1,0.5]];portConstraint=eastwest;rotatable=0;whiteSpace=wrap;html=1;" vertex="1" parent="ZGlA48Y2NmvRt6gWsgfc-2">
          <mxGeometry y="100" width="140" height="110" as="geometry" />
        </mxCell>
        <mxCell id="ZGlA48Y2NmvRt6gWsgfc-7" value="cargo" style="swimlane;fontStyle=0;childLayout=stackLayout;horizontal=1;startSize=30;horizontalStack=0;resizeParent=1;resizeParentMax=0;resizeLast=0;collapsible=1;marginBottom=0;whiteSpace=wrap;html=1;" vertex="1" parent="1">
          <mxGeometry x="450" y="30" width="140" height="120" as="geometry" />
        </mxCell>
        <mxCell id="ZGlA48Y2NmvRt6gWsgfc-8" value="gerente&lt;br&gt;id_cargo" style="text;strokeColor=none;fillColor=none;align=left;verticalAlign=middle;spacingLeft=4;spacingRight=4;overflow=hidden;points=[[0,0.5],[1,0.5]];portConstraint=eastwest;rotatable=0;whiteSpace=wrap;html=1;" vertex="1" parent="ZGlA48Y2NmvRt6gWsgfc-7">
          <mxGeometry y="30" width="140" height="30" as="geometry" />
        </mxCell>
        <mxCell id="ZGlA48Y2NmvRt6gWsgfc-9" value="atendente&amp;nbsp;" style="text;strokeColor=none;fillColor=none;align=left;verticalAlign=middle;spacingLeft=4;spacingRight=4;overflow=hidden;points=[[0,0.5],[1,0.5]];portConstraint=eastwest;rotatable=0;whiteSpace=wrap;html=1;" vertex="1" parent="ZGlA48Y2NmvRt6gWsgfc-7">
          <mxGeometry y="60" width="140" height="30" as="geometry" />
        </mxCell>
        <mxCell id="ZGlA48Y2NmvRt6gWsgfc-10" value="coordenador&amp;nbsp;" style="text;strokeColor=none;fillColor=none;align=left;verticalAlign=middle;spacingLeft=4;spacingRight=4;overflow=hidden;points=[[0,0.5],[1,0.5]];portConstraint=eastwest;rotatable=0;whiteSpace=wrap;html=1;" vertex="1" parent="ZGlA48Y2NmvRt6gWsgfc-7">
          <mxGeometry y="90" width="140" height="30" as="geometry" />
        </mxCell>
        <mxCell id="ZGlA48Y2NmvRt6gWsgfc-11" style="edgeStyle=orthogonalEdgeStyle;rounded=0;orthogonalLoop=1;jettySize=auto;html=1;entryX=-0.029;entryY=0.15;entryDx=0;entryDy=0;entryPerimeter=0;" edge="1" parent="1" source="ZGlA48Y2NmvRt6gWsgfc-4" target="ZGlA48Y2NmvRt6gWsgfc-7">
          <mxGeometry relative="1" as="geometry" />
        </mxCell>
        <mxCell id="ZGlA48Y2NmvRt6gWsgfc-33" style="edgeStyle=orthogonalEdgeStyle;rounded=0;orthogonalLoop=1;jettySize=auto;html=1;entryX=-0.043;entryY=0.4;entryDx=0;entryDy=0;entryPerimeter=0;" edge="1" parent="1" source="ZGlA48Y2NmvRt6gWsgfc-12" target="ZGlA48Y2NmvRt6gWsgfc-26">
          <mxGeometry relative="1" as="geometry" />
        </mxCell>
        <mxCell id="ZGlA48Y2NmvRt6gWsgfc-12" value="cliente" style="swimlane;fontStyle=0;childLayout=stackLayout;horizontal=1;startSize=30;horizontalStack=0;resizeParent=1;resizeParentMax=0;resizeLast=0;collapsible=1;marginBottom=0;whiteSpace=wrap;html=1;" vertex="1" parent="1">
          <mxGeometry x="110" y="340" width="140" height="180" as="geometry" />
        </mxCell>
        <mxCell id="ZGlA48Y2NmvRt6gWsgfc-13" value="id_cliente" style="text;strokeColor=none;fillColor=none;align=left;verticalAlign=middle;spacingLeft=4;spacingRight=4;overflow=hidden;points=[[0,0.5],[1,0.5]];portConstraint=eastwest;rotatable=0;whiteSpace=wrap;html=1;" vertex="1" parent="ZGlA48Y2NmvRt6gWsgfc-12">
          <mxGeometry y="30" width="140" height="30" as="geometry" />
        </mxCell>
        <mxCell id="ZGlA48Y2NmvRt6gWsgfc-14" value="nome" style="text;strokeColor=none;fillColor=none;align=left;verticalAlign=middle;spacingLeft=4;spacingRight=4;overflow=hidden;points=[[0,0.5],[1,0.5]];portConstraint=eastwest;rotatable=0;whiteSpace=wrap;html=1;" vertex="1" parent="ZGlA48Y2NmvRt6gWsgfc-12">
          <mxGeometry y="60" width="140" height="30" as="geometry" />
        </mxCell>
        <mxCell id="ZGlA48Y2NmvRt6gWsgfc-15" value="idade&lt;br&gt;data_nasc&lt;br&gt;celular&lt;br&gt;e-mail&lt;br&gt;endereco" style="text;strokeColor=none;fillColor=none;align=left;verticalAlign=middle;spacingLeft=4;spacingRight=4;overflow=hidden;points=[[0,0.5],[1,0.5]];portConstraint=eastwest;rotatable=0;whiteSpace=wrap;html=1;" vertex="1" parent="ZGlA48Y2NmvRt6gWsgfc-12">
          <mxGeometry y="90" width="140" height="90" as="geometry" />
        </mxCell>
        <mxCell id="ZGlA48Y2NmvRt6gWsgfc-16" value="produto" style="swimlane;fontStyle=0;childLayout=stackLayout;horizontal=1;startSize=30;horizontalStack=0;resizeParent=1;resizeParentMax=0;resizeLast=0;collapsible=1;marginBottom=0;whiteSpace=wrap;html=1;" vertex="1" parent="1">
          <mxGeometry x="820" y="355" width="140" height="170" as="geometry" />
        </mxCell>
        <mxCell id="ZGlA48Y2NmvRt6gWsgfc-17" value="id_produto" style="text;strokeColor=none;fillColor=none;align=left;verticalAlign=middle;spacingLeft=4;spacingRight=4;overflow=hidden;points=[[0,0.5],[1,0.5]];portConstraint=eastwest;rotatable=0;whiteSpace=wrap;html=1;" vertex="1" parent="ZGlA48Y2NmvRt6gWsgfc-16">
          <mxGeometry y="30" width="140" height="30" as="geometry" />
        </mxCell>
        <mxCell id="ZGlA48Y2NmvRt6gWsgfc-35" style="edgeStyle=orthogonalEdgeStyle;rounded=0;orthogonalLoop=1;jettySize=auto;html=1;" edge="1" parent="ZGlA48Y2NmvRt6gWsgfc-16" source="ZGlA48Y2NmvRt6gWsgfc-18">
          <mxGeometry relative="1" as="geometry">
            <mxPoint x="-80" y="75" as="targetPoint" />
          </mxGeometry>
        </mxCell>
        <mxCell id="ZGlA48Y2NmvRt6gWsgfc-18" value="nome" style="text;strokeColor=none;fillColor=none;align=left;verticalAlign=middle;spacingLeft=4;spacingRight=4;overflow=hidden;points=[[0,0.5],[1,0.5]];portConstraint=eastwest;rotatable=0;whiteSpace=wrap;html=1;" vertex="1" parent="ZGlA48Y2NmvRt6gWsgfc-16">
          <mxGeometry y="60" width="140" height="30" as="geometry" />
        </mxCell>
        <mxCell id="ZGlA48Y2NmvRt6gWsgfc-19" value="categoria&lt;br&gt;estoque&lt;br&gt;preco" style="text;strokeColor=none;fillColor=none;align=left;verticalAlign=middle;spacingLeft=4;spacingRight=4;overflow=hidden;points=[[0,0.5],[1,0.5]];portConstraint=eastwest;rotatable=0;whiteSpace=wrap;html=1;" vertex="1" parent="ZGlA48Y2NmvRt6gWsgfc-16">
          <mxGeometry y="90" width="140" height="80" as="geometry" />
        </mxCell>
        <mxCell id="ZGlA48Y2NmvRt6gWsgfc-34" style="edgeStyle=orthogonalEdgeStyle;rounded=0;orthogonalLoop=1;jettySize=auto;html=1;" edge="1" parent="1" source="ZGlA48Y2NmvRt6gWsgfc-20">
          <mxGeometry relative="1" as="geometry">
            <mxPoint x="440" y="520" as="targetPoint" />
          </mxGeometry>
        </mxCell>
        <mxCell id="ZGlA48Y2NmvRt6gWsgfc-20" value="forma_pagamento" style="swimlane;fontStyle=0;childLayout=stackLayout;horizontal=1;startSize=30;horizontalStack=0;resizeParent=1;resizeParentMax=0;resizeLast=0;collapsible=1;marginBottom=0;whiteSpace=wrap;html=1;" vertex="1" parent="1">
          <mxGeometry x="390" y="610" width="140" height="150" as="geometry" />
        </mxCell>
        <mxCell id="ZGlA48Y2NmvRt6gWsgfc-21" value="id_forma_pagamento" style="text;strokeColor=none;fillColor=none;align=left;verticalAlign=middle;spacingLeft=4;spacingRight=4;overflow=hidden;points=[[0,0.5],[1,0.5]];portConstraint=eastwest;rotatable=0;whiteSpace=wrap;html=1;" vertex="1" parent="ZGlA48Y2NmvRt6gWsgfc-20">
          <mxGeometry y="30" width="140" height="30" as="geometry" />
        </mxCell>
        <mxCell id="ZGlA48Y2NmvRt6gWsgfc-22" value="pix" style="text;strokeColor=none;fillColor=none;align=left;verticalAlign=middle;spacingLeft=4;spacingRight=4;overflow=hidden;points=[[0,0.5],[1,0.5]];portConstraint=eastwest;rotatable=0;whiteSpace=wrap;html=1;" vertex="1" parent="ZGlA48Y2NmvRt6gWsgfc-20">
          <mxGeometry y="60" width="140" height="30" as="geometry" />
        </mxCell>
        <mxCell id="ZGlA48Y2NmvRt6gWsgfc-23" value="vista&lt;br&gt;dinheiro&lt;br&gt;credito" style="text;strokeColor=none;fillColor=none;align=left;verticalAlign=middle;spacingLeft=4;spacingRight=4;overflow=hidden;points=[[0,0.5],[1,0.5]];portConstraint=eastwest;rotatable=0;whiteSpace=wrap;html=1;" vertex="1" parent="ZGlA48Y2NmvRt6gWsgfc-20">
          <mxGeometry y="90" width="140" height="60" as="geometry" />
        </mxCell>
        <mxCell id="ZGlA48Y2NmvRt6gWsgfc-24" value="pedido" style="swimlane;fontStyle=0;childLayout=stackLayout;horizontal=1;startSize=30;horizontalStack=0;resizeParent=1;resizeParentMax=0;resizeLast=0;collapsible=1;marginBottom=0;whiteSpace=wrap;html=1;" vertex="1" parent="1">
          <mxGeometry x="380" y="355" width="140" height="160" as="geometry" />
        </mxCell>
        <mxCell id="ZGlA48Y2NmvRt6gWsgfc-25" value="id_pedido" style="text;strokeColor=none;fillColor=none;align=left;verticalAlign=middle;spacingLeft=4;spacingRight=4;overflow=hidden;points=[[0,0.5],[1,0.5]];portConstraint=eastwest;rotatable=0;whiteSpace=wrap;html=1;" vertex="1" parent="ZGlA48Y2NmvRt6gWsgfc-24">
          <mxGeometry y="30" width="140" height="30" as="geometry" />
        </mxCell>
        <mxCell id="ZGlA48Y2NmvRt6gWsgfc-26" value="fk_cliente&lt;br&gt;fk_funcionario" style="text;strokeColor=none;fillColor=none;align=left;verticalAlign=middle;spacingLeft=4;spacingRight=4;overflow=hidden;points=[[0,0.5],[1,0.5]];portConstraint=eastwest;rotatable=0;whiteSpace=wrap;html=1;" vertex="1" parent="ZGlA48Y2NmvRt6gWsgfc-24">
          <mxGeometry y="60" width="140" height="30" as="geometry" />
        </mxCell>
        <mxCell id="ZGlA48Y2NmvRt6gWsgfc-27" value="fk_forma_pagamento&lt;br&gt;valor_total&lt;br&gt;data_pedido" style="text;strokeColor=none;fillColor=none;align=left;verticalAlign=middle;spacingLeft=4;spacingRight=4;overflow=hidden;points=[[0,0.5],[1,0.5]];portConstraint=eastwest;rotatable=0;whiteSpace=wrap;html=1;" vertex="1" parent="ZGlA48Y2NmvRt6gWsgfc-24">
          <mxGeometry y="90" width="140" height="70" as="geometry" />
        </mxCell>
        <mxCell id="ZGlA48Y2NmvRt6gWsgfc-28" value="pedido_produ" style="swimlane;fontStyle=0;childLayout=stackLayout;horizontal=1;startSize=30;horizontalStack=0;resizeParent=1;resizeParentMax=0;resizeLast=0;collapsible=1;marginBottom=0;whiteSpace=wrap;html=1;" vertex="1" parent="1">
          <mxGeometry x="590" y="355" width="140" height="150" as="geometry" />
        </mxCell>
        <mxCell id="ZGlA48Y2NmvRt6gWsgfc-29" value="fk_pedido&lt;br&gt;fk_produto" style="text;strokeColor=none;fillColor=none;align=left;verticalAlign=middle;spacingLeft=4;spacingRight=4;overflow=hidden;points=[[0,0.5],[1,0.5]];portConstraint=eastwest;rotatable=0;whiteSpace=wrap;html=1;" vertex="1" parent="ZGlA48Y2NmvRt6gWsgfc-28">
          <mxGeometry y="30" width="140" height="40" as="geometry" />
        </mxCell>
        <mxCell id="ZGlA48Y2NmvRt6gWsgfc-30" value="preco_uni&lt;br&gt;preco_item_flot" style="text;strokeColor=none;fillColor=none;align=left;verticalAlign=middle;spacingLeft=4;spacingRight=4;overflow=hidden;points=[[0,0.5],[1,0.5]];portConstraint=eastwest;rotatable=0;whiteSpace=wrap;html=1;" vertex="1" parent="ZGlA48Y2NmvRt6gWsgfc-28">
          <mxGeometry y="70" width="140" height="40" as="geometry" />
        </mxCell>
        <mxCell id="ZGlA48Y2NmvRt6gWsgfc-31" value="quantidade" style="text;strokeColor=none;fillColor=none;align=left;verticalAlign=middle;spacingLeft=4;spacingRight=4;overflow=hidden;points=[[0,0.5],[1,0.5]];portConstraint=eastwest;rotatable=0;whiteSpace=wrap;html=1;" vertex="1" parent="ZGlA48Y2NmvRt6gWsgfc-28">
          <mxGeometry y="110" width="140" height="40" as="geometry" />
        </mxCell>
        <mxCell id="ZGlA48Y2NmvRt6gWsgfc-36" style="edgeStyle=orthogonalEdgeStyle;rounded=0;orthogonalLoop=1;jettySize=auto;html=1;entryX=-0.043;entryY=0.1;entryDx=0;entryDy=0;entryPerimeter=0;" edge="1" parent="1" source="ZGlA48Y2NmvRt6gWsgfc-26" target="ZGlA48Y2NmvRt6gWsgfc-30">
          <mxGeometry relative="1" as="geometry" />
        </mxCell>
      </root>
    </mxGraphModel>
  </diagram>
</mxfile>
